<svg width="120" height="120" viewBox="0 0 120 120" fill="none" xmlns="http://www.w3.org/2000/svg">
  <rect width="120" height="120" rx="24" fill="#F1F9EE"/>
  <path d="M35 39.8L39.5 80.8L60.2 86L80.5 80.8L85 39.8H35Z" fill="#95BF47"/>
  <path d="M51 52.8C53.9 52.8 56.2 55.1 56.2 58V69.2C56.2 72.1 53.9 74.4 51 74.4C48.1 74.4 45.8 72.1 45.8 69.2V58C45.8 55.1 48.1 52.8 51 52.8Z" fill="white"/>
  <path d="M68.7 52.8C71.6 52.8 73.9 55.1 73.9 58V69.2C73.9 72.1 71.6 74.4 68.7 74.4C65.8 74.4 63.5 72.1 63.5 69.2V58C63.5 55.1 65.8 52.8 68.7 52.8Z" fill="white"/>
  <rect x="46" y="33" width="4.2" height="13.2" rx="2.1" fill="#6A9542"/>
  <rect x="69.2" y="33" width="4.2" height="13.2" rx="2.1" fill="#6A9542"/>
</svg>
