<svg width="120" height="120" viewBox="0 0 120 120" fill="none" xmlns="http://www.w3.org/2000/svg">
  <rect width="120" height="120" rx="24" fill="#EAFBF2"/>
  <circle cx="60" cy="60" r="33" fill="#25D366"/>
  <path d="M50.8 46.5C48.5 46.5 46.6 48.4 46.6 50.7V69.4C46.6 71.7 48.5 73.6 50.8 73.6H69.5C71.8 73.6 73.7 71.7 73.7 69.4V50.7C73.7 48.4 71.8 46.5 69.5 46.5H50.8Z" fill="white" fill-opacity="0.2"/>
  <path d="M66 64.8C64.8 65.9 63.4 66.4 62 66.1C58.8 65.3 54.7 61.4 53.9 58.2C53.6 56.8 54.1 55.4 55.2 54.2L56.2 53.2C56.6 52.8 57.3 52.8 57.7 53.2L59.7 55.2C60.1 55.6 60.1 56.3 59.7 56.7L58.9 57.5C58.7 57.7 58.6 58 58.7 58.3C59.1 59.5 60.8 61.2 62 61.6C62.3 61.7 62.6 61.6 62.8 61.4L63.6 60.6C64 60.2 64.7 60.2 65.1 60.6L67.1 62.6C67.5 63 67.5 63.7 67.1 64.1L66 64.8Z" fill="white"/>
</svg>
